<svg width="17" height="10" viewBox="0 0 17 10" fill="none" xmlns="http://www.w3.org/2000/svg">
<path d="M1.32313 0.352185C1.5487 0.126681 1.8546 0 2.17356 0C2.49252 0 2.79842 0.126681 3.02399 0.352185L8.97821 6.3064L14.9324 0.352185C15.1593 0.133072 15.4631 0.0118287 15.7785 0.0145694C16.0939 0.01731 16.3956 0.143815 16.6186 0.366837C16.8417 0.589859 16.9682 0.891555 16.9709 1.20694C16.9736 1.52233 16.8524 1.82618 16.6333 2.05305L9.82864 8.85769C9.60307 9.0832 9.29717 9.20988 8.97821 9.20988C8.65925 9.20988 8.35335 9.0832 8.12778 8.85769L1.32313 2.05305C1.09763 1.82747 0.970947 1.52157 0.970947 1.20261C0.970947 0.883656 1.09763 0.577757 1.32313 0.352185Z" fill="black"/>
</svg>
