<svg width="17" height="10" viewBox="0 0 17 10" fill="none" xmlns="http://www.w3.org/2000/svg">
<path d="M16.2538 9.61229C16.0282 9.8378 15.7223 9.96448 15.4033 9.96448C15.0844 9.96448 14.7785 9.8378 14.5529 9.61229L8.59869 3.65808L2.64448 9.61229C2.41761 9.83141 2.11376 9.95265 1.79838 9.94991C1.48299 9.94717 1.18129 9.82066 0.958269 9.59764C0.735247 9.37462 0.608743 9.07292 0.606003 8.75753C0.603262 8.44214 0.724504 8.1383 0.943617 7.91143L7.74826 1.10679C7.97384 0.881282 8.27974 0.754601 8.59869 0.754601C8.91765 0.754601 9.22355 0.881282 9.44912 1.10679L16.2538 7.91143C16.4793 8.137 16.606 8.4429 16.606 8.76186C16.606 9.08082 16.4793 9.38672 16.2538 9.61229Z" fill="#757778"/>
</svg>
