<svg width="17" height="16" viewBox="0 0 17 16" fill="none" xmlns="http://www.w3.org/2000/svg">
<path d="M8.48022 0C6.35849 0 4.32366 0.842855 2.82337 2.34315C1.32308 3.84344 0.480225 5.87827 0.480225 8C0.480225 10.1217 1.32308 12.1566 2.82337 13.6569C4.32366 15.1571 6.35849 16 8.48022 16C10.602 16 12.6368 15.1571 14.1371 13.6569C15.6374 12.1566 16.4802 10.1217 16.4802 8C16.4802 5.87827 15.6374 3.84344 14.1371 2.34315C12.6368 0.842855 10.602 0 8.48022 0ZM13.0412 10.9152L11.3945 12.5619L8.48022 9.64667L5.56499 12.561L3.91832 10.9143L6.83451 8L3.91927 5.08476L5.56594 3.43905L8.48022 6.35333L11.3955 3.4381L13.0421 5.08476L10.1259 8L13.0412 10.9152Z" fill="black"/>
</svg>
