<svg width="21" height="20" viewBox="0 0 21 20" fill="none" xmlns="http://www.w3.org/2000/svg">
<path d="M2.87792 19.6374H17.9066C19.0907 19.6374 20.0536 18.6745 20.0536 17.4905V8.18555L17.9066 10.3325V17.4905H6.26796C6.24005 17.4905 6.21107 17.5012 6.18316 17.5012C6.14774 17.5012 6.11231 17.4915 6.07581 17.4905H2.87792V2.46176H10.228L12.375 0.3148H2.87792C1.69387 0.3148 0.730957 1.27771 0.730957 2.46176V17.4905C0.730957 18.6745 1.69387 19.6374 2.87792 19.6374Z" fill="#2563EB"/>
<path d="M9.76214 15.3414L5.02488 15.3575V10.602L15.3668 0.358813L12.375 0.3148L10.228 2.46176H2.87792V17.4905H6.07581C6.11231 17.4915 6.14774 17.5012 6.18316 17.5012C6.21107 17.5012 6.24005 17.4905 6.26796 17.4905H17.9066V10.3325L20.0536 8.18555L20.1019 5.10037L9.76214 15.3414Z" fill="#2563EB"/>
<path d="M7.17183 11.4972L13.6449 5.08534L15.3475 6.78788L8.87545 13.1976L7.17183 13.203V11.4972Z" fill="#2563EB"/>
<path d="M16.8815 1.87993L18.5872 3.57925L16.8729 5.2775L15.1703 3.57603L16.8815 1.87993Z" fill="#2563EB"/>
</svg>
