<svg width="21" height="21" viewBox="0 0 21 21" fill="none" xmlns="http://www.w3.org/2000/svg">
<path d="M5.02488 16.3575L9.76214 16.3414L20.1019 6.10037C20.5077 5.6946 20.731 5.15571 20.731 4.58247C20.731 4.00923 20.5077 3.47035 20.1019 3.06457L18.3994 1.36203C17.5878 0.550482 16.1719 0.554776 15.3668 1.35881L5.02488 11.602V16.3575ZM16.8815 2.87993L18.5872 4.57925L16.8729 6.2775L15.1703 4.57603L16.8815 2.87993ZM7.17183 12.4972L13.6449 6.08534L15.3475 7.78788L8.87545 14.1976L7.17183 14.203V12.4972Z" fill="#5C5F60"/>
<path d="M2.87792 20.6374H17.9066C19.0907 20.6374 20.0536 19.6745 20.0536 18.4905V9.18555L17.9066 11.3325V18.4905H6.26796C6.24005 18.4905 6.21107 18.5012 6.18316 18.5012C6.14774 18.5012 6.11231 18.4915 6.07581 18.4905H2.87792V3.46176H10.228L12.375 1.3148H2.87792C1.69387 1.3148 0.730957 2.27771 0.730957 3.46176V18.4905C0.730957 19.6745 1.69387 20.6374 2.87792 20.6374Z" fill="#5C5F60"/>
</svg>
