<svg width="15" height="14" viewBox="0 0 15 14" fill="none" xmlns="http://www.w3.org/2000/svg">
<path fill-rule="evenodd" clip-rule="evenodd" d="M1.82335 1.97197H11.5625V7.24733H12.7799V0.754578H0.605957V10.4937C0.605957 10.9242 0.776971 11.3371 1.08138 11.6415C1.38578 11.9459 1.79865 12.1169 2.22915 12.1169H7.9103V10.8995H2.22915C2.12152 10.8995 2.01831 10.8568 1.9422 10.7807C1.8661 10.7045 1.82335 10.6013 1.82335 10.4937V1.97197ZM10.3451 3.59516H3.04074V4.81255H10.3451V3.59516ZM6.28712 6.02994H3.04074V7.24733H6.28712V6.02994ZM9.1277 7.24733H8.3161V8.05893H9.1277V7.24733ZM8.3161 6.02994H7.09871V9.27632H10.3451V6.02994H9.1277H8.3161ZM6.28712 8.05893H3.04074V9.27632H6.28712V8.05893ZM11.5625 9.07342H12.7799V10.8995H14.606V12.1169H12.7799V13.943H11.5625V12.1169H9.73639V10.8995H11.5625V9.07342Z" fill="black"/>
</svg>
