<svg width="23" height="21" viewBox="0 0 23 21" fill="none" xmlns="http://www.w3.org/2000/svg">
<path d="M22.943 9.03083C22.943 8.49858 22.7316 7.98813 22.3552 7.61177C21.9789 7.23541 21.4684 7.02398 20.9362 7.02398H14.5945L15.5578 2.43832C15.5779 2.33798 15.5879 2.2276 15.5879 2.11723C15.5879 1.70582 15.4173 1.32452 15.1464 1.0536L14.0828 0L7.48025 6.60254C7.10898 6.97381 6.88823 7.47552 6.88823 8.0274V18.0617C6.88823 18.5939 7.09966 19.1044 7.47602 19.4807C7.85238 19.8571 8.36283 20.0685 8.89508 20.0685H17.9259C18.7588 20.0685 19.4712 19.5668 19.7722 18.8443L22.8026 11.7702C22.8929 11.5394 22.943 11.2986 22.943 11.0377V9.03083ZM0.867676 20.0685H4.88138V8.0274H0.867676V20.0685Z" fill="#2563EB"/>
</svg>
