<svg width="23" height="21" viewBox="0 0 23 21" fill="none" xmlns="http://www.w3.org/2000/svg">
<path d="M4.80594 8.0274V20.0685H0.792236V8.0274H4.80594ZM8.81964 20.0685C8.28739 20.0685 7.77694 19.8571 7.40058 19.4807C7.02422 19.1044 6.81279 18.5939 6.81279 18.0617V8.0274C6.81279 7.47552 7.03354 6.97381 7.40481 6.61257L14.0073 0L15.071 1.06363C15.3419 1.33456 15.5125 1.70582 15.5125 2.11723L15.4824 2.43832L14.5291 7.02398H20.8607C21.393 7.02398 21.9034 7.23541 22.2798 7.61177C22.6562 7.98813 22.8676 8.49858 22.8676 9.03083V11.0377C22.8676 11.2986 22.8174 11.5394 22.7271 11.7702L19.6968 18.8443C19.3957 19.5668 18.6833 20.0685 17.8505 20.0685H8.81964ZM8.81964 18.0617H17.8806L20.8607 11.0377V9.03083H12.0406L13.1745 3.69261L8.81964 8.05751V18.0617Z" fill="#5C5F60"/>
</svg>
