<svg width="11" height="14" viewBox="0 0 11 14" fill="none" xmlns="http://www.w3.org/2000/svg">
<path d="M0.605957 11.3796V10.1296H1.85596V5.75458C1.85596 4.89 2.11637 4.12187 2.63721 3.4502C3.15804 2.77854 3.83512 2.33833 4.66846 2.12958V1.69208C4.66846 1.43166 4.75971 1.21041 4.94221 1.02833C5.12471 0.846246 5.34596 0.754996 5.60596 0.754579C5.86596 0.754162 6.08742 0.845412 6.27033 1.02833C6.45325 1.21125 6.54429 1.4325 6.54346 1.69208V2.12958C7.37679 2.33791 8.05387 2.77812 8.57471 3.4502C9.09554 4.12229 9.35596 4.89041 9.35596 5.75458V10.1296H10.606V11.3796H0.605957ZM5.60596 13.2546C5.26221 13.2546 4.96804 13.1323 4.72346 12.8877C4.47887 12.6431 4.35637 12.3487 4.35596 12.0046H6.85596C6.85596 12.3483 6.73367 12.6427 6.48908 12.8877C6.2445 13.1327 5.95012 13.255 5.60596 13.2546ZM3.10596 10.1296H8.10596V5.75458C8.10596 5.06708 7.86117 4.47854 7.37158 3.98895C6.882 3.49937 6.29346 3.25458 5.60596 3.25458C4.91846 3.25458 4.32992 3.49937 3.84033 3.98895C3.35075 4.47854 3.10596 5.06708 3.10596 5.75458V10.1296Z" fill="black"/>
</svg>
