<svg width="17" height="17" viewBox="0 0 17 17" fill="none" xmlns="http://www.w3.org/2000/svg">
<path d="M15.5881 9.89744H9.87381V15.6117C9.87381 15.9148 9.75341 16.2055 9.53908 16.4198C9.32475 16.6342 9.03406 16.7546 8.73096 16.7546C8.42785 16.7546 8.13716 16.6342 7.92284 16.4198C7.70851 16.2055 7.5881 15.9148 7.5881 15.6117V9.89744H1.87381C1.57071 9.89744 1.28002 9.77703 1.06569 9.5627C0.851365 9.34837 0.730957 9.05768 0.730957 8.75458C0.730957 8.45147 0.851365 8.16078 1.06569 7.94646C1.28002 7.73213 1.57071 7.61172 1.87381 7.61172H7.5881V1.89743C7.5881 1.59433 7.70851 1.30364 7.92284 1.08931C8.13716 0.874985 8.42785 0.754578 8.73096 0.754578C9.03406 0.754578 9.32475 0.874985 9.53908 1.08931C9.75341 1.30364 9.87381 1.59433 9.87381 1.89743V7.61172H15.5881C15.8912 7.61172 16.1819 7.73213 16.3962 7.94646C16.6106 8.16078 16.731 8.45147 16.731 8.75458C16.731 9.05768 16.6106 9.34837 16.3962 9.5627C16.1819 9.77703 15.8912 9.89744 15.5881 9.89744Z" fill="black"/>
</svg>
