<svg width="22" height="22" viewBox="0 0 22 22" fill="none" xmlns="http://www.w3.org/2000/svg">
<path d="M12.3872 16.5983C12.3872 16.8394 12.3157 17.075 12.1818 17.2754C12.0479 17.4758 11.8576 17.6321 11.6349 17.7243C11.4122 17.8165 11.1671 17.8407 10.9307 17.7937C10.6943 17.7466 10.4771 17.6306 10.3067 17.4601C10.1362 17.2897 10.0202 17.0725 9.97313 16.8361C9.9261 16.5997 9.95024 16.3546 10.0425 16.1319C10.1347 15.9092 10.2909 15.7189 10.4914 15.585C10.6918 15.4511 10.9274 15.3796 11.1685 15.3796C11.4917 15.3796 11.8017 15.508 12.0302 15.7365C12.2588 15.9651 12.3872 16.2751 12.3872 16.5983ZM11.1685 5.62958C8.92799 5.62958 7.10596 7.26981 7.10596 9.28583V9.69208C7.10596 9.90757 7.19156 10.1142 7.34394 10.2666C7.49631 10.419 7.70297 10.5046 7.91846 10.5046C8.13395 10.5046 8.34061 10.419 8.49299 10.2666C8.64536 10.1142 8.73096 9.90757 8.73096 9.69208V9.28583C8.73096 8.16864 9.82479 7.25458 11.1685 7.25458C12.5121 7.25458 13.606 8.16864 13.606 9.28583C13.606 10.403 12.5121 11.3171 11.1685 11.3171C10.953 11.3171 10.7463 11.4027 10.5939 11.5551C10.4416 11.7074 10.356 11.9141 10.356 12.1296V12.9421C10.356 13.1576 10.4416 13.3642 10.5939 13.5166C10.7463 13.669 10.953 13.7546 11.1685 13.7546C11.3839 13.7546 11.5906 13.669 11.743 13.5166C11.8954 13.3642 11.981 13.1576 11.981 12.9421V12.869C13.8335 12.5287 15.231 11.051 15.231 9.28583C15.231 7.26981 13.4089 5.62958 11.1685 5.62958ZM21.731 11.3171C21.731 13.4061 21.1115 15.4483 19.9509 17.1853C18.7902 18.9223 17.1406 20.2761 15.2106 21.0756C13.2805 21.875 11.1567 22.0842 9.10782 21.6766C7.0589 21.2691 5.17684 20.2631 3.69965 18.7859C2.22245 17.3087 1.21647 15.4266 0.808917 13.3777C0.401361 11.3288 0.610534 9.20503 1.40998 7.27498C2.20943 5.34494 3.56326 3.6953 5.30025 2.53468C7.03724 1.37406 9.0794 0.754578 11.1685 0.754578C13.9689 0.757535 16.6538 1.87132 18.634 3.85153C20.6142 5.83174 21.728 8.51664 21.731 11.3171ZM20.106 11.3171C20.106 9.54941 19.5818 7.82143 18.5997 6.35167C17.6177 4.8819 16.2218 3.73636 14.5887 3.0599C12.9556 2.38345 11.1585 2.20645 9.42484 2.55131C7.69114 2.89616 6.09863 3.74738 4.84869 4.99731C3.59876 6.24724 2.74755 7.83975 2.40269 9.57346C2.05784 11.3072 2.23483 13.1042 2.91129 14.7373C3.58775 16.3704 4.73329 17.7663 6.20305 18.7483C7.67282 19.7304 9.40079 20.2546 11.1685 20.2546C13.538 20.2519 15.8097 19.3094 17.4853 17.6339C19.1608 15.9584 20.1033 13.6866 20.106 11.3171Z" fill="#757778"/>
</svg>
