<svg width="27" height="26" viewBox="0 0 27 26" fill="none" xmlns="http://www.w3.org/2000/svg">
<path d="M26.7255 12.8773C26.7255 12.5358 26.5899 12.2082 26.3484 11.9667C26.1069 11.7252 25.7793 11.5896 25.4378 11.5896C25.0963 11.5896 24.7687 11.7252 24.5272 11.9667C24.2857 12.2082 24.1501 12.5358 24.1501 12.8773H26.7255ZM13.8482 2.57546C14.1898 2.57546 14.5173 2.43979 14.7588 2.19829C15.0003 1.9568 15.136 1.62926 15.136 1.28773C15.136 0.946202 15.0003 0.618663 14.7588 0.377167C14.5173 0.135671 14.1898 0 13.8482 0V2.57546ZM23.5062 23.1791H4.19027V25.7546H23.5062V23.1791ZM3.54641 22.5353V3.21932H0.970947V22.5353H3.54641ZM24.1501 12.8773V22.5353H26.7255V12.8773H24.1501ZM4.19027 2.57546H13.8482V0H4.19027V2.57546ZM4.19027 23.1791C4.01951 23.1791 3.85574 23.1113 3.73499 22.9905C3.61424 22.8698 3.54641 22.706 3.54641 22.5353H0.970947C0.970947 23.3891 1.31013 24.2079 1.91387 24.8117C2.51761 25.4154 3.33645 25.7546 4.19027 25.7546V23.1791ZM23.5062 25.7546C24.36 25.7546 25.1789 25.4154 25.7826 24.8117C26.3864 24.2079 26.7255 23.3891 26.7255 22.5353H24.1501C24.1501 22.706 24.0822 22.8698 23.9615 22.9905C23.8407 23.1113 23.677 23.1791 23.5062 23.1791V25.7546ZM3.54641 3.21932C3.54641 3.04856 3.61424 2.88479 3.73499 2.76404C3.85574 2.64329 4.01951 2.57546 4.19027 2.57546V0C3.33645 0 2.51761 0.339178 1.91387 0.942918C1.31013 1.54666 0.970947 2.36551 0.970947 3.21932H3.54641Z" fill="black"/>
<path d="M2.25867 19.9599L9.14351 13.6487C9.37557 13.436 9.67749 13.3157 9.99222 13.3105C10.307 13.3053 10.6127 13.4155 10.8517 13.6204L18.9992 20.6037M16.4237 17.3844L19.4969 14.3112C19.7161 14.0919 20.007 13.959 20.3164 13.937C20.6257 13.915 20.9325 14.0054 21.1806 14.1915L25.4378 17.3844M22.2185 9.01416V1.28778M22.2185 1.28778L18.9992 4.5071M22.2185 1.28778L25.4378 4.5071" stroke="black" stroke-width="1.83961" stroke-linecap="round" stroke-linejoin="round"/>
</svg>
