<svg width="27" height="26" viewBox="0 0 27 26" fill="none" xmlns="http://www.w3.org/2000/svg">
<path d="M26.4802 12.8773C26.4802 12.5358 26.3445 12.2082 26.103 11.9667C25.8615 11.7252 25.534 11.5896 25.1924 11.5896C24.8509 11.5896 24.5234 11.7252 24.2819 11.9667C24.0404 12.2082 23.9047 12.5358 23.9047 12.8773H26.4802ZM13.6029 2.57546C13.9444 2.57546 14.2719 2.43979 14.5134 2.19829C14.7549 1.9568 14.8906 1.62926 14.8906 1.28773C14.8906 0.946202 14.7549 0.618663 14.5134 0.377167C14.2719 0.135671 13.9444 0 13.6029 0V2.57546ZM23.2609 23.1791H3.94491V25.7546H23.2609V23.1791ZM3.30104 22.5353V3.21932H0.725586V22.5353H3.30104ZM23.9047 12.8773V22.5353H26.4802V12.8773H23.9047ZM3.94491 2.57546H13.6029V0H3.94491V2.57546ZM3.94491 23.1791C3.77415 23.1791 3.61038 23.1113 3.48963 22.9905C3.36888 22.8698 3.30104 22.706 3.30104 22.5353H0.725586C0.725586 23.3891 1.06476 24.2079 1.6685 24.8117C2.27224 25.4154 3.09109 25.7546 3.94491 25.7546V23.1791ZM23.2609 25.7546C24.1147 25.7546 24.9335 25.4154 25.5373 24.8117C26.141 24.2079 26.4802 23.3891 26.4802 22.5353H23.9047C23.9047 22.706 23.8369 22.8698 23.7161 22.9905C23.5954 23.1113 23.4316 23.1791 23.2609 23.1791V25.7546ZM3.30104 3.21932C3.30104 3.04856 3.36888 2.88479 3.48963 2.76404C3.61038 2.64329 3.77415 2.57546 3.94491 2.57546V0C3.09109 0 2.27224 0.339178 1.6685 0.942918C1.06476 1.54666 0.725586 2.36551 0.725586 3.21932H3.30104Z" fill="#2563EB"/>
<path d="M2.01331 19.9599L8.89815 13.6487C9.13021 13.436 9.43213 13.3157 9.74686 13.3105C10.0616 13.3053 10.3673 13.4155 10.6063 13.6204L18.7538 20.6037M16.1783 17.3844L19.2515 14.3112C19.4707 14.0919 19.7617 13.959 20.071 13.937C20.3803 13.915 20.6872 14.0054 20.9352 14.1915L25.1924 17.3844M21.9731 9.01416V1.28778M21.9731 1.28778L18.7538 4.5071M21.9731 1.28778L25.1924 4.5071" stroke="#2563EB" stroke-width="1.83961" stroke-linecap="round" stroke-linejoin="round"/>
</svg>
